<?xml version="1.0" standalone="no"?>
<!DOCTYPE svg PUBLIC "-//W3C//DTD SVG 20010904//EN"
 "http://www.w3.org/TR/2001/REC-SVG-20010904/DTD/svg10.dtd">
<svg version="1.0" xmlns="http://www.w3.org/2000/svg"
 width="700.000000pt" height="700.000000pt" viewBox="0 0 700.000000 700.000000"
 preserveAspectRatio="xMidYMid meet">
<metadata>
Created by potrace 1.14, written by Peter Selinger 2001-2017
</metadata>
<g transform="translate(0.000000,700.000000) scale(0.100000,-0.100000)"
fill="#000000" stroke="none">
<path d="M3120 6863 c0 -5 -17 -9 -37 -10 -21 0 -63 -4 -93 -7 -30 -4 -66 -8
-80 -10 -14 -1 -30 -5 -35 -8 -6 -3 -20 -4 -32 -3 -13 1 -23 -1 -23 -5 0 -6
-119 -35 -132 -32 -5 1 -8 -2 -8 -8 0 -5 -7 -7 -15 -4 -8 4 -15 1 -15 -6 0 -7
-8 -10 -20 -7 -11 3 -20 1 -20 -4 0 -5 -9 -9 -20 -9 -11 0 -20 -5 -20 -10 0
-6 -6 -10 -12 -8 -7 1 -39 -10 -71 -25 -32 -15 -62 -27 -66 -27 -5 0 -11 -3
-13 -7 -1 -5 -21 -17 -43 -28 -72 -35 -185 -112 -177 -120 4 -5 2 -5 -4 -2 -6
4 -22 -3 -36 -16 -13 -12 -44 -38 -68 -57 -81 -65 -192 -181 -262 -275 -20
-27 -42 -55 -48 -62 -5 -7 -15 -24 -22 -38 -6 -14 -15 -25 -20 -25 -4 0 -8 -6
-8 -13 0 -7 -9 -23 -20 -35 -11 -12 -20 -23 -19 -24 0 -2 -18 -43 -41 -93 -59
-128 -72 -156 -75 -169 -1 -6 -7 -24 -13 -39 -7 -16 -12 -35 -12 -43 0 -8 -6
-14 -12 -14 -9 0 -8 -4 2 -10 12 -7 12 -10 1 -10 -7 0 -11 -6 -8 -14 3 -8 3
-17 -1 -20 -3 -4 -7 -12 -8 -19 -2 -7 -6 -25 -9 -42 -3 -16 -10 -49 -16 -73
-5 -24 -7 -47 -4 -52 3 -5 1 -11 -3 -14 -5 -3 -8 -21 -7 -41 1 -19 -1 -35 -5
-35 -10 0 -9 -1933 1 -1950 5 -10 8 -11 9 -2 0 6 6 12 13 12 8 0 24 9 37 20
13 11 34 23 47 26 13 4 23 10 23 15 0 5 4 9 10 9 5 0 55 27 111 60 55 33 105
60 110 60 5 0 9 4 9 8 0 4 16 14 35 21 19 7 35 17 35 22 0 5 7 9 15 9 8 0 24
9 35 20 11 11 23 21 28 21 11 3 57 23 62 29 3 3 22 14 43 25 41 21 68 55 45
55 -8 0 -9 3 -3 8 6 4 10 109 10 280 0 174 -4 272 -10 272 -7 0 -7 3 0 8 13 9
13 225 0 234 -7 5 -7 8 0 8 6 0 10 98 10 272 0 171 -4 276 -10 280 -7 5 -6 8
0 8 6 0 11 19 11 43 0 51 12 165 18 176 3 4 7 18 10 32 12 58 16 71 41 131 15
34 29 73 32 86 3 12 8 22 12 22 3 0 17 21 31 48 13 26 27 49 30 52 3 3 17 21
30 40 13 19 33 43 44 53 10 9 16 17 12 17 -3 0 28 32 71 71 84 76 176 140 263
181 77 37 110 51 153 61 6 2 21 6 32 10 40 13 147 30 195 31 19 1 38 6 42 11
5 7 8 7 8 0 0 -6 36 -11 83 -12 45 -1 91 -4 102 -6 11 -2 38 -7 60 -11 22 -4
47 -10 55 -13 15 -6 42 -12 68 -15 6 -1 12 -4 12 -8 0 -4 17 -12 38 -18 21 -7
59 -23 83 -36 24 -13 60 -32 79 -42 19 -11 37 -21 40 -24 3 -3 25 -21 50 -40
73 -55 185 -175 236 -253 56 -84 60 -88 89 -77 12 5 39 11 59 14 21 4 41 8 45
11 4 2 18 6 32 9 13 3 33 7 44 10 62 15 172 37 192 38 13 2 23 5 23 8 0 3 26
5 58 5 31 0 63 4 70 9 8 5 12 4 12 -5 0 -11 2 -11 10 1 8 12 11 13 19 1 6 -9
11 -10 15 -2 4 6 12 11 17 11 6 0 8 -4 5 -8 -2 -4 10 -6 29 -4 l33 4 -17 42
c-106 246 -229 427 -405 595 -104 100 -117 111 -122 111 -6 0 -28 18 -54 44
-11 11 -20 16 -20 10 0 -5 -4 -4 -8 2 -6 9 -44 35 -117 82 -11 6 -31 17 -45
23 -14 6 -33 18 -44 27 -10 9 -20 16 -22 14 -2 -1 -27 9 -55 23 -29 13 -56 22
-60 19 -5 -3 -9 0 -9 5 0 6 -9 11 -20 11 -10 0 -25 6 -32 13 -7 8 -21 12 -32
9 -12 -3 -17 -1 -13 6 4 6 0 9 -10 7 -10 -1 -22 0 -28 4 -5 3 -14 6 -20 8 -5
1 -43 11 -84 22 -41 11 -78 18 -82 15 -4 -2 -10 0 -13 5 -4 5 -14 8 -24 7 -9
-2 -30 1 -47 6 -16 5 -92 11 -168 13 -76 2 -142 7 -147 10 -6 4 -10 2 -10 -2z"/>
<path d="M5753 5930 c-32 -30 -94 -69 -160 -101 -60 -29 -111 -58 -115 -64 -4
-5 -8 -7 -8 -2 0 10 -62 -22 -72 -37 -4 -6 -8 -7 -8 -3 0 14 -85 -50 -120 -89
-18 -21 -42 -58 -53 -83 -22 -50 -33 -176 -17 -186 6 -3 10 1 10 9 0 9 4 16 8
16 5 0 15 12 23 27 28 53 171 179 190 167 5 -3 9 -1 9 5 0 6 11 13 25 17 14 3
25 11 25 17 0 6 3 7 6 4 4 -3 16 -1 28 5 19 10 20 10 7 -5 -7 -10 -10 -17 -6
-17 4 0 2 -7 -5 -15 -7 -8 -9 -15 -5 -15 4 0 2 -7 -5 -15 -7 -9 -10 -18 -7
-22 4 -3 2 -12 -3 -18 -6 -7 -11 -25 -12 -41 -1 -16 -4 -33 -7 -39 -9 -16 -8
-44 1 -39 4 3 8 1 8 -5 0 -5 -6 -12 -12 -14 -10 -4 -10 -6 0 -6 6 -1 12 -13
13 -28 0 -30 1 -29 29 37 17 40 66 113 105 156 6 6 24 28 40 49 17 21 36 44
43 51 6 7 12 17 12 23 0 6 4 11 8 11 9 0 47 71 44 83 -1 4 2 7 7 7 10 0 36 86
34 112 -1 10 2 20 8 23 5 4 5 14 -1 26 -6 11 -8 24 -5 29 3 5 2 11 -2 13 -5 3
-32 -17 -60 -43z"/>
<path d="M6115 5880 c-4 -6 -11 -7 -17 -4 -7 4 -8 2 -4 -4 4 -7 1 -12 -6 -12
-17 0 -69 -45 -61 -54 3 -3 2 -6 -4 -6 -5 0 -27 -25 -48 -55 -21 -31 -51 -67
-67 -80 -35 -29 -30 -49 8 -35 14 6 30 8 35 4 5 -3 9 0 9 6 0 6 10 10 23 8 20
-3 22 -8 21 -64 0 -58 1 -61 18 -50 10 6 24 28 30 49 6 20 15 37 20 37 5 0 6
5 3 10 -3 6 -3 16 2 23 4 6 9 19 10 27 4 22 21 102 27 125 19 74 19 105 1 75z"/>
<path d="M3343 5631 c6 -39 141 -189 205 -226 17 -11 32 -23 32 -27 0 -4 6 -5
14 -2 7 3 16 -2 19 -10 4 -9 15 -16 25 -16 10 0 22 -3 26 -7 4 -5 12 -9 17 -9
5 -1 11 -3 14 -4 3 -1 8 -3 13 -4 4 -1 16 -7 27 -13 15 -9 16 -13 5 -14 -8 -1
-18 -1 -22 0 -5 0 -8 -3 -8 -9 0 -6 -4 -9 -8 -7 -10 2 -106 -45 -110 -55 -2
-4 -10 -4 -18 -1 -8 3 -14 0 -14 -5 0 -6 -16 -16 -35 -23 -19 -7 -35 -17 -35
-23 0 -5 -3 -7 -6 -3 -3 3 -15 -3 -27 -14 -11 -10 -26 -19 -33 -19 -6 0 -14
-6 -17 -13 -6 -15 29 -17 51 -4 7 5 12 3 12 -5 0 -8 3 -9 8 -3 8 12 92 12 110
1 7 -4 12 -2 12 6 0 10 2 10 9 -1 5 -7 13 -11 19 -7 6 3 13 3 16 -2 3 -5 -36
-33 -87 -63 -50 -30 -100 -60 -112 -66 -11 -7 -47 -26 -80 -43 -33 -17 -67
-35 -75 -39 -35 -20 -107 -50 -132 -56 -16 -4 -28 -11 -28 -17 0 -5 -6 -8 -12
-7 -7 1 -20 -1 -28 -4 -33 -14 -133 -36 -141 -31 -5 3 -9 1 -9 -4 0 -5 -12
-10 -27 -10 -16 -1 -59 -3 -98 -6 -38 -3 -81 -5 -95 -6 -23 -1 -22 -2 9 -16
19 -8 45 -15 58 -16 13 -1 23 -5 23 -9 0 -3 6 -6 13 -6 6 -1 39 -3 72 -6 33
-3 114 -6 180 -7 l120 -1 -123 -60 c-68 -32 -130 -59 -138 -59 -8 0 -14 -4
-14 -10 0 -5 -8 -10 -18 -10 -10 0 -22 -4 -28 -9 -7 -7 -64 -29 -94 -36 -3 -1
-18 -7 -35 -14 -16 -7 -38 -13 -47 -14 -10 -1 -18 -4 -18 -7 0 -4 -6 -7 -12
-7 -7 -1 -42 -8 -78 -18 -36 -9 -78 -18 -95 -21 -86 -14 -104 -16 -149 -20
-57 -4 -80 -19 -36 -22 16 -1 40 -6 52 -10 13 -5 79 -7 148 -6 117 2 174 8
277 32 23 5 44 7 48 4 3 -3 5 0 5 6 0 6 9 9 20 7 11 -2 20 1 20 6 0 5 6 9 13
8 18 -4 95 20 102 31 4 6 10 8 15 5 5 -3 17 -1 27 4 30 16 88 36 96 33 4 -1 7
3 7 8 0 5 3 9 8 8 4 -1 36 11 72 27 36 17 68 29 73 27 4 -1 7 2 7 7 0 5 11 12
25 15 14 4 25 11 25 17 0 6 5 7 10 4 6 -3 10 -2 10 4 0 5 14 12 30 16 17 4 30
11 30 16 0 5 7 9 15 9 8 0 15 5 15 11 0 5 5 7 10 4 6 -3 10 -1 10 4 0 6 5 11
11 11 9 0 169 100 192 120 5 4 -9 7 -31 6 -22 0 -39 -3 -37 -6 2 -3 -12 -6
-31 -7 -36 -2 -46 11 -16 21 18 6 62 30 106 59 14 10 26 14 26 10 0 -5 4 -3 8
4 4 6 14 13 22 15 8 2 22 10 31 18 10 8 44 28 76 44 32 16 64 34 72 40 7 5 20
11 29 12 8 2 18 6 21 11 3 4 29 18 56 31 28 13 62 30 78 38 15 8 32 12 37 9 6
-3 10 -1 10 4 0 6 3 10 8 9 4 0 15 2 25 5 46 18 53 20 62 22 6 0 38 7 73 15
63 14 83 30 36 30 -14 0 -23 3 -21 8 3 4 -7 8 -21 9 -32 3 -51 8 -72 16 -8 3
-31 8 -50 9 l-35 3 40 25 c22 14 42 25 45 25 3 0 12 5 20 10 8 5 20 10 26 11
6 1 27 9 45 18 71 32 246 84 273 80 9 -1 14 1 11 6 -4 7 18 11 170 28 33 4
115 7 182 7 88 0 123 3 123 12 0 16 -69 72 -97 79 -13 4 -21 9 -18 13 2 4 -1
8 -8 8 -7 1 -37 9 -67 20 -30 10 -65 18 -77 17 -13 -1 -23 2 -23 6 0 5 -8 7
-17 5 -10 -2 -18 -4 -18 -5 0 -1 -10 -3 -22 -4 -13 -2 -23 1 -23 5 0 4 -10 6
-22 3 -13 -2 -43 -6 -68 -10 -25 -3 -76 -12 -115 -20 -38 -8 -83 -17 -100 -20
-16 -3 -61 -14 -100 -24 -38 -10 -73 -16 -77 -14 -4 3 -8 1 -8 -5 0 -5 -9 -8
-20 -6 -11 2 -20 -1 -20 -7 0 -6 -2 -9 -5 -6 -4 3 -25 1 -48 -4 -23 -5 -55
-11 -70 -13 -15 -2 -47 -7 -70 -11 -54 -9 -257 -12 -257 -4 0 4 -12 7 -27 8
-16 0 -35 3 -43 5 -8 2 -28 7 -45 12 -16 4 -35 12 -41 16 -6 5 -20 10 -31 12
-11 1 -32 10 -46 20 -15 9 -31 17 -37 17 -5 0 -10 4 -10 8 0 5 -16 14 -35 22
-19 8 -35 16 -35 19 0 4 -9 12 -20 19 -17 11 -20 10 -17 -7z"/>
<path d="M5737 5584 c-3 -4 -2 -15 4 -25 5 -11 7 -19 3 -19 -3 0 -2 -6 4 -12
6 -7 11 -16 11 -20 1 -5 1 -9 2 -10 18 -61 15 -155 -5 -220 -10 -32 -23 -58
-28 -58 -5 0 -6 -5 -3 -10 6 -9 -113 -138 -122 -132 -1 1 -4 2 -5 1 -18 -5
-47 -11 -64 -13 -11 -1 -26 -6 -33 -10 -8 -5 -17 -3 -22 5 -5 8 -9 9 -9 3 0
-8 -20 -10 -62 -7 -35 2 -107 5 -160 6 -54 1 -98 6 -98 10 0 5 -5 5 -11 2 -6
-4 -34 -9 -62 -11 -47 -3 -88 -9 -94 -14 -3 -3 -8 -4 -40 -15 -13 -4 -23 -10
-23 -14 0 -3 -13 -12 -30 -19 -38 -17 -193 -169 -185 -181 3 -6 26 2 53 18 26
15 72 37 102 49 98 37 102 39 158 47 18 2 37 7 42 10 6 3 10 1 10 -6 0 -8 4
-8 13 -2 13 11 89 10 182 -2 33 -5 79 -9 102 -9 24 -1 43 -4 43 -7 0 -8 214
-5 228 4 7 5 12 4 12 -3 0 -8 6 -8 20 0 11 6 25 8 30 5 6 -3 10 -1 10 5 0 7 6
10 13 7 41 -14 211 135 199 176 -1 4 2 7 7 7 5 0 12 19 16 43 12 70 17 73 58
37 21 -18 37 -29 37 -25 0 4 6 3 13 -2 16 -13 71 -30 120 -37 70 -11 157 -62
157 -94 0 -5 7 -15 15 -22 17 -14 17 -14 20 60 2 60 -30 103 -93 126 -104 38
-185 100 -228 174 -10 16 -22 30 -26 30 -4 0 -8 5 -8 11 0 12 -80 89 -92 89
-4 0 -13 6 -20 13 -7 8 -38 23 -68 35 -30 11 -62 23 -71 26 -8 4 -18 4 -22 0z"/>
<path d="M330 5330 c0 -3 -27 -3 -59 -2 l-59 4 0 -1832 c0 -1461 2 -1829 12
-1821 7 6 16 8 19 4 4 -3 7 -1 7 5 0 6 10 14 23 18 12 3 29 12 37 19 8 8 22
15 30 17 13 3 25 10 53 33 7 6 28 18 47 27 19 10 53 29 75 43 22 14 47 28 55
32 8 4 35 19 60 34 106 63 186 107 194 107 5 0 12 4 15 9 6 9 129 83 137 83 3
0 25 14 50 30 24 17 44 27 44 23 0 -4 4 -3 8 2 4 6 18 16 32 24 14 8 34 19 45
25 10 6 25 17 33 23 7 7 17 13 22 13 7 0 117 62 160 91 8 5 23 12 33 15 9 4
17 11 17 16 0 5 4 7 9 4 5 -3 14 1 21 9 7 8 19 15 26 15 8 0 14 5 14 11 0 5 5
7 10 4 6 -3 10 -2 10 3 0 6 11 13 25 16 14 4 25 11 25 16 0 6 4 10 10 10 5 0
47 23 94 50 47 28 89 50 95 50 6 0 11 4 11 9 0 5 16 15 34 22 19 7 33 16 30
21 -3 4 2 8 10 8 9 0 40 16 71 35 30 20 55 33 55 30 0 -4 7 1 16 9 8 9 22 16
30 16 8 0 14 4 14 9 0 5 9 12 19 16 10 3 46 23 80 45 34 22 61 37 61 33 0 -3
8 1 18 9 9 8 24 18 32 22 8 3 29 15 45 26 17 11 40 24 53 30 12 5 35 18 50 28
15 11 73 45 130 77 56 31 102 61 102 66 0 5 3 8 8 7 11 -4 72 26 72 34 0 5 7
8 15 8 8 0 15 5 15 12 0 6 3 9 6 5 4 -3 26 7 50 24 24 16 44 27 44 24 0 -3 16
6 35 21 19 14 35 22 35 18 0 -5 4 -4 8 2 4 5 71 47 149 92 129 74 173 89 173
61 0 -5 3 -8 8 -7 4 1 18 -5 32 -14 42 -27 151 -88 156 -88 3 0 25 -14 50 -30
24 -17 44 -27 44 -23 0 4 4 3 8 -3 4 -6 50 -35 102 -64 52 -30 97 -57 98 -62
2 -4 8 -6 13 -2 5 3 9 1 9 -4 0 -5 15 -16 33 -23 17 -7 55 -28 84 -46 29 -18
57 -33 63 -33 5 0 10 -5 10 -11 0 -5 5 -7 10 -4 6 3 10 2 10 -2 0 -5 22 -20
50 -34 27 -13 50 -27 50 -30 0 -4 11 -10 25 -13 14 -4 25 -11 25 -16 0 -6 6
-10 14 -10 7 0 25 -9 38 -20 14 -10 28 -17 30 -14 3 2 11 -2 18 -11 7 -8 18
-15 25 -15 7 0 18 -7 25 -15 7 -9 15 -13 18 -11 2 3 10 0 18 -7 25 -22 40 -32
54 -35 8 -2 17 -8 18 -13 2 -5 8 -7 13 -3 5 3 9 1 9 -4 0 -6 12 -15 28 -21 15
-6 41 -20 57 -30 33 -22 78 -48 112 -65 13 -6 23 -15 23 -19 0 -5 4 -6 9 -3 5
3 14 -1 21 -9 7 -8 16 -15 20 -15 4 0 38 -18 74 -40 36 -22 70 -40 76 -40 5 0
10 -3 10 -7 0 -5 19 -17 43 -28 23 -11 44 -22 47 -26 7 -9 89 -56 128 -73 17
-8 32 -20 32 -25 0 -6 3 -10 8 -10 17 3 31 -2 44 -13 7 -7 27 -20 43 -28 17
-8 41 -22 55 -31 41 -27 133 -79 163 -92 15 -6 27 -14 27 -18 0 -4 14 -12 30
-19 17 -7 30 -17 30 -22 0 -5 5 -6 10 -3 6 3 10 1 10 -4 0 -6 3 -10 8 -9 4 2
35 -14 68 -35 34 -20 66 -37 72 -37 6 0 12 -4 14 -8 2 -7 99 -65 158 -95 8 -4
33 -18 55 -31 22 -14 55 -32 73 -41 17 -10 32 -22 32 -27 0 -5 4 -7 9 -4 5 3
20 -3 34 -14 14 -11 30 -20 36 -20 6 0 11 -4 11 -10 0 -5 9 -10 19 -10 10 0
21 -7 25 -15 3 -8 9 -15 13 -14 16 2 53 -14 53 -23 0 -5 4 -7 9 -4 6 4 9 415
9 1012 0 553 2 1008 5 1010 8 8 47 -15 75 -45 24 -26 62 -102 62 -124 0 -7 21
-25 47 -41 52 -33 163 -51 163 -26 0 8 3 11 6 7 3 -3 23 4 43 17 20 12 66 37
103 54 127 61 130 66 142 287 3 39 5 70 6 70 1 0 3 21 4 48 1 26 -2 47 -6 47
-4 0 -5 7 -2 15 10 26 -44 125 -96 176 -27 27 -53 49 -56 49 -3 0 -11 6 -18
13 -7 6 -28 23 -47 37 -40 30 -106 97 -157 160 -21 25 -40 47 -44 48 -5 2 -8
8 -8 14 0 6 -14 31 -31 56 -28 42 -36 59 -38 85 -1 5 -6 5 -11 2 -6 -4 -9 -3
-8 2 3 12 -33 114 -49 140 -8 12 -13 24 -11 26 2 3 -20 40 -49 84 -59 90 -190
235 -190 209 0 -9 3 -16 7 -16 4 0 15 -18 25 -40 10 -22 21 -40 25 -40 4 0 7
-6 7 -12 1 -7 11 -38 23 -68 12 -30 22 -59 23 -65 2 -5 6 -16 10 -22 5 -7 6
-13 3 -13 -2 0 0 -15 5 -32 5 -18 11 -44 14 -58 6 -47 46 -182 61 -211 8 -16
12 -29 9 -29 -3 0 3 -10 14 -22 11 -11 18 -24 16 -28 -3 -4 2 -13 10 -20 8 -7
15 -16 15 -21 0 -20 88 -111 278 -288 56 -52 100 -97 97 -99 -3 -3 0 -11 6
-19 6 -7 7 -13 2 -13 -5 0 -10 -11 -11 -25 -2 -22 7 -30 30 -26 13 2 47 -32
42 -41 -3 -4 -14 -8 -25 -8 -19 0 -21 -15 -5 -52 4 -9 9 -25 10 -35 8 -50 -65
-110 -104 -85 -10 6 -20 8 -23 5 -9 -8 4 -33 17 -33 6 0 19 -6 28 -14 15 -11
11 -15 -34 -34 l-50 -21 -38 37 c-20 20 -39 45 -43 54 -3 9 -16 22 -28 29 -20
10 -21 9 -14 -7 37 -91 42 -110 28 -123 -15 -13 -57 -5 -48 10 4 5 2 9 -3 9
-11 0 -32 45 -32 68 0 9 -5 33 -10 54 -9 31 -17 39 -54 51 -25 9 -47 13 -50 9
-3 -3 -6 0 -6 6 0 7 -3 11 -7 11 -5 -1 -11 0 -15 1 -5 1 -12 4 -18 5 -5 1 -12
4 -15 5 -8 4 -17 7 -52 15 -18 4 -33 12 -33 18 0 6 -3 8 -6 4 -4 -3 -23 2 -44
13 -21 11 -40 17 -42 14 -3 -2 -11 2 -18 11 -7 8 -19 15 -27 15 -8 0 -21 6
-28 13 -34 29 -45 37 -55 37 -14 0 -130 113 -130 127 0 6 6 13 14 16 8 3 19
15 25 26 10 18 8 19 -22 15 -17 -3 -37 -7 -44 -9 -7 -2 -15 0 -18 6 -4 5 -11
6 -17 3 -15 -9 -163 -4 -163 6 0 1 -10 3 -23 6 -39 7 -122 46 -122 57 0 6 -3
8 -6 4 -3 -3 -19 7 -36 21 -54 48 -88 82 -82 82 3 0 -1 7 -8 15 -30 33 -34 41
-30 54 3 8 0 11 -7 7 -7 -5 -11 2 -11 17 0 13 -3 27 -7 31 -12 11 -14 37 -15
144 -1 56 -2 102 -4 102 -5 0 -45 -82 -51 -105 -3 -11 -6 -32 -6 -47 -1 -14
-5 -24 -9 -21 -5 2 -8 -9 -8 -25 0 -28 -7 -33 -95 -77 -52 -26 -95 -51 -95
-56 0 -5 -5 -9 -11 -9 -24 0 -140 -90 -219 -169 -82 -83 -173 -203 -173 -228
0 -7 -4 -13 -9 -13 -4 0 -8 -7 -8 -15 0 -8 -5 -15 -11 -15 -5 0 -7 -4 -4 -10
3 -5 1 -10 -4 -10 -6 0 -10 -3 -9 -7 1 -5 -5 -21 -12 -38 -7 -16 -15 -38 -17
-48 -1 -10 -10 -32 -19 -48 -8 -17 -13 -33 -10 -36 2 -3 0 -17 -5 -32 -13 -31
-30 -117 -31 -148 0 -19 -3 -20 -28 -12 -15 6 -36 18 -46 28 -11 9 -22 17 -25
17 -3 -1 -54 27 -112 61 -59 35 -111 63 -117 63 -5 0 -10 5 -10 10 0 6 -4 10
-9 10 -12 0 -155 83 -159 92 -2 5 -8 6 -13 2 -5 -3 -9 0 -9 5 0 6 -4 11 -10
11 -5 0 -49 24 -97 53 -49 28 -102 59 -118 67 -17 8 -32 18 -35 21 -3 3 -41
25 -85 49 -44 24 -82 47 -85 50 -3 4 -15 10 -27 14 -13 4 -23 12 -23 17 0 6
-5 7 -10 4 -5 -3 -10 -1 -10 5 0 6 -4 9 -9 6 -5 -4 -11 -2 -13 2 -1 5 -33 25
-69 45 -66 37 -66 37 -90 18 -13 -10 -34 -21 -46 -25 -13 -4 -23 -12 -23 -17
0 -5 -5 -9 -11 -9 -6 0 -23 -9 -37 -19 -15 -10 -31 -20 -37 -21 -5 -2 -27 -14
-47 -26 -21 -13 -40 -24 -43 -24 -3 0 -24 -12 -48 -27 -23 -15 -45 -26 -49
-25 -5 1 -8 -2 -8 -8 0 -5 -7 -10 -15 -10 -8 0 -15 -4 -15 -8 0 -4 -15 -15
-32 -23 -33 -16 -233 -128 -275 -155 -13 -8 -26 -14 -29 -13 -4 0 -10 -3 -13
-8 -3 -5 -33 -25 -66 -43 -33 -19 -62 -37 -63 -42 -2 -4 -7 -6 -12 -3 -5 3
-14 -1 -22 -8 -7 -7 -38 -27 -68 -43 -81 -45 -104 -58 -110 -64 -4 -4 -29 -18
-115 -64 -11 -6 -23 -15 -27 -20 -3 -5 -12 -11 -20 -12 -7 -1 -55 -27 -106
-58 -51 -31 -97 -56 -102 -56 -6 0 -10 -4 -10 -8 0 -4 -12 -13 -27 -19 -26
-11 -76 -40 -148 -85 -16 -10 -38 -21 -47 -24 -10 -4 -18 -10 -18 -15 0 -5 -3
-8 -7 -7 -10 3 -106 -52 -115 -67 -4 -5 -8 -7 -8 -3 0 4 -36 -15 -79 -42 -44
-26 -89 -51 -100 -55 -12 -3 -21 -10 -21 -15 0 -4 -11 -11 -25 -14 -14 -4 -25
-11 -25 -16 0 -6 -4 -10 -9 -10 -5 0 -45 -20 -89 -45 -44 -25 -83 -45 -86 -45
-3 0 -6 549 -6 1219 l0 1219 -50 4 c-28 1 -50 1 -50 -2 0 -3 -54 -3 -120 0
-66 3 -120 3 -120 0 0 -3 -54 -3 -120 0 -66 3 -120 3 -120 0z m4837 -1074 c12
-13 19 -27 16 -30 -9 -8 143 -156 161 -156 9 0 16 -3 16 -7 0 -11 50 -33 72
-33 10 0 18 -4 18 -10 0 -5 9 -10 19 -10 20 0 20 -12 20 -565 l0 -564 -40 24
c-21 14 -39 22 -39 18 0 -5 -4 -3 -8 3 -4 6 -34 25 -67 44 -33 19 -63 38 -67
44 -4 6 -8 7 -8 3 0 -4 -21 7 -47 25 -27 18 -48 31 -48 28 0 -2 -18 8 -40 22
-37 23 -58 35 -182 105 -27 14 -50 29 -53 32 -3 3 -34 21 -70 40 -36 18 -71
41 -77 49 -7 9 -13 13 -13 9 0 -3 -22 7 -50 23 -27 16 -50 27 -50 24 0 -2 -10
4 -22 16 -12 11 -25 20 -28 20 -4 0 -6 20 -6 44 1 24 4 42 8 40 4 -3 7 4 7 13
0 37 14 103 22 103 5 0 6 7 3 15 -4 8 -2 21 4 28 5 6 8 20 7 30 -2 9 0 17 4
17 4 0 13 18 20 39 6 22 18 52 26 67 8 15 12 31 9 36 -3 4 0 8 6 8 6 0 14 8
17 18 4 9 16 33 28 52 12 19 23 38 24 43 1 8 12 21 101 114 37 39 71 69 74 66
3 -4 6 -2 6 4 0 10 102 83 116 83 3 0 18 9 34 20 15 11 30 17 34 13 3 -3 6 -1
6 5 0 19 15 14 37 -12z"/>
<path d="M5825 4880 c-11 -4 -24 -5 -29 -2 -5 3 -6 0 -2 -6 5 -8 0 -12 -13
-12 -11 0 -23 -4 -26 -10 -3 -5 -1 -10 5 -10 6 0 9 -4 6 -8 -8 -13 64 -79 104
-95 19 -8 45 -13 57 -11 14 2 34 -9 63 -38 37 -37 41 -39 37 -17 -2 13 -9 38
-16 54 -7 17 -15 42 -18 58 -3 15 -10 30 -14 33 -5 3 -7 10 -3 15 7 13 -25 38
-48 39 -10 0 -18 3 -18 8 0 10 -60 12 -85 2z"/>
<path d="M6598 3929 c-10 -5 -18 -7 -18 -4 0 14 -32 -26 -44 -57 -12 -27 -12
-36 2 -64 21 -46 58 -53 89 -18 25 29 30 54 11 54 -6 0 -9 3 -5 6 3 4 0 13 -8
21 -9 9 -12 24 -8 43 6 33 6 34 -19 19z"/>
<path d="M2106 2635 c-8 -9 -18 -15 -21 -15 -10 1 -69 -32 -83 -47 -8 -8 -20
-12 -27 -9 -8 3 -15 -1 -18 -7 -3 -7 -31 -25 -63 -42 -33 -16 -61 -33 -64 -36
-3 -4 -24 -17 -48 -30 -71 -39 -79 -44 -96 -58 -9 -7 -16 -10 -16 -5 0 5 -4 5
-8 -1 -6 -9 -29 -23 -97 -59 -11 -6 -23 -15 -26 -19 -3 -5 -10 -9 -15 -9 -5 0
-8 -4 -6 -10 1 -5 -2 -7 -7 -4 -5 4 -16 0 -24 -8 -8 -8 -17 -13 -20 -10 -2 3
-4 -92 -3 -210 0 -118 4 -218 8 -222 4 -4 3 -13 -3 -21 -6 -7 -7 -13 -2 -13 5
0 8 -17 7 -37 0 -21 1 -42 5 -48 3 -5 6 -23 7 -38 2 -16 6 -36 9 -45 4 -10 9
-28 11 -42 4 -28 12 -65 14 -65 3 0 12 -39 13 -57 1 -10 4 -18 8 -18 5 0 19
-48 18 -65 0 -3 7 -18 14 -33 23 -43 41 -86 39 -94 -1 -5 3 -8 8 -8 6 0 10 -6
10 -13 0 -15 53 -120 81 -158 10 -15 19 -32 19 -38 0 -6 5 -11 10 -11 6 0 10
-6 10 -13 0 -7 8 -22 18 -33 9 -10 37 -46 62 -79 47 -61 252 -275 265 -275 4
0 24 -14 44 -30 57 -48 60 -50 71 -50 5 0 10 -4 10 -8 0 -5 20 -19 45 -32 25
-13 45 -26 45 -30 0 -3 16 -12 35 -20 19 -8 35 -17 35 -22 0 -4 3 -7 8 -6 4 1
34 -11 67 -27 33 -16 62 -30 65 -30 3 -1 16 -6 30 -12 57 -25 96 -38 108 -35
6 2 12 -2 12 -8 0 -5 11 -10 25 -10 15 0 38 -6 53 -13 15 -7 37 -12 50 -11 12
0 22 -2 22 -6 0 -7 5 -8 70 -12 25 -2 47 -6 50 -9 12 -16 324 -28 410 -16 19
3 60 8 90 12 30 4 64 9 75 11 11 3 31 7 45 9 30 4 139 33 160 42 8 3 21 7 29
9 7 1 38 13 68 25 31 12 61 22 69 22 7 0 11 4 8 9 -3 4 3 8 13 8 10 0 27 7 37
15 10 8 23 12 27 9 5 -3 9 -1 9 4 0 6 17 17 38 26 50 22 96 49 100 59 2 4 8 7
14 7 6 0 27 14 48 30 21 17 42 30 48 30 6 0 12 3 14 8 2 4 32 32 68 62 75 63
194 181 230 230 14 18 30 38 35 44 19 20 125 177 125 186 0 14 27 60 32 54 3
-3 8 7 12 21 4 14 11 25 17 25 6 0 8 4 4 9 -3 5 3 27 14 48 19 35 36 78 40 95
1 4 11 27 21 50 11 24 20 53 20 66 0 12 4 22 8 22 4 0 8 10 9 23 1 12 4 31 7
42 18 65 25 102 21 116 -3 8 -33 30 -68 49 -34 18 -65 37 -68 42 -3 5 -12 10
-20 12 -8 1 -33 14 -56 29 -24 15 -47 27 -53 27 -5 0 -10 3 -10 8 0 4 -10 12
-23 18 -42 21 -112 59 -117 64 -3 3 -16 11 -29 18 -61 35 -90 52 -140 81 -29
18 -56 29 -60 26 -9 -10 -8 -29 4 -37 7 -6 7 -10 0 -15 -6 -5 -11 -26 -12 -48
-1 -72 -13 -173 -24 -202 -6 -15 -9 -28 -8 -28 5 0 -34 -121 -42 -131 -5 -6
-6 -14 -2 -17 3 -4 1 -7 -5 -7 -7 0 -11 -3 -10 -7 4 -12 -26 -73 -35 -73 -5 0
-6 -4 -2 -9 3 -5 0 -15 -7 -23 -7 -7 -19 -25 -27 -40 -8 -16 -18 -28 -23 -28
-4 0 -8 -7 -8 -15 0 -8 -4 -15 -10 -15 -5 0 -10 -5 -10 -11 0 -7 -13 -25 -30
-40 -16 -16 -28 -29 -25 -29 9 0 -111 -112 -137 -128 -16 -9 -28 -20 -28 -24
0 -4 -7 -8 -15 -8 -8 0 -15 -4 -15 -8 0 -4 -26 -21 -57 -37 -32 -17 -63 -36
-71 -42 -7 -7 -17 -13 -22 -13 -5 0 -21 -5 -37 -12 -15 -6 -31 -12 -35 -13 -5
-2 -10 -4 -13 -5 -3 -1 -8 -3 -12 -4 -5 -1 -14 -5 -20 -9 -7 -5 -17 -5 -23 -2
-5 3 -10 2 -10 -3 0 -5 -20 -13 -43 -16 -24 -4 -57 -9 -73 -13 -16 -3 -40 -6
-54 -7 -14 -1 -31 -5 -37 -9 -8 -5 -13 -3 -13 3 0 7 -6 8 -19 0 -13 -7 -22 -7
-26 0 -4 7 -12 7 -25 0 -13 -7 -20 -6 -23 3 -4 9 -6 9 -6 -1 -1 -10 -6 -10
-22 -1 -17 9 -20 8 -14 -2 6 -8 4 -10 -5 -4 -7 4 -31 9 -54 11 -23 1 -54 5
-71 9 -16 3 -39 8 -50 10 -11 2 -32 8 -46 13 -15 6 -30 8 -33 5 -3 -4 -6 -2
-6 4 0 5 -6 10 -13 10 -20 0 -136 54 -210 97 -102 61 -203 152 -286 259 -41
54 -104 153 -106 167 -1 3 -8 19 -17 35 -18 36 -53 137 -50 148 1 4 -2 7 -7 7
-4 0 -7 10 -7 23 1 12 0 27 -3 32 -9 16 -12 36 -18 100 -3 33 -9 62 -14 63 -5
2 -6 9 -2 15 11 18 9 467 -2 467 -7 0 -7 3 0 8 6 4 10 59 10 129 0 127 -5 141
-39 108z"/>
</g>
</svg>
